<?xml version="1.0" encoding="utf-8"?>
<svg xmlns="http://www.w3.org/2000/svg" viewBox="131 133.05 239.8358 238.7146" width="239.836px"
  height="238.715px">
  <path fill="#1879EC"
    d="M161.67 350c-15.62 9.35-28.91 17-29.54 17-1.36 0-1.4-16.81-.17-75.5.75-35.53 1.09-41.45 2.57-44.33 3.74-7.34 5.62 1.47 6.2 29.08.27 12.51.89 22.75 1.38 22.75.5 0 .89 10.38.89 23.5 0 18.18.28 23.5 1.25 23.5.7 0 5.98-2.77 11.75-6.15 5.78-3.38 13.65-7.94 17.5-10.13 3.85-2.2 8.19-4.83 9.65-5.86 1.46-1.02 3.4-1.86 4.3-1.86.9 0 2.75-1.1 4.1-2.45 1.99-2 2.45-3.46 2.45-7.85 0-6.15 2.31-9.37 5.9-8.23 1.79.57 1.97 1.21 1.44 5.07-.5 3.65-.3 4.54 1.16 5.1.97.37 2.72.07 3.88-.67 1.17-.73 3.95-1.62 6.2-1.97 3.84-.59 4.05-.5 3.64 1.65-.27 1.37-2.11 3.27-4.58 4.72-2.28 1.33-5.38 3.58-6.89 4.98-2.53 2.35-2.75 3.15-2.75 10.1 0 4.37.42 7.55 1 7.55.55 0 1 1.1 1 2.44 0 3.51 1.57 3.99 5.37 1.64 8.07-4.99 27.86-14.19 29.89-13.9 6.73.96-.04 8.93-15.71 18.5-4.98 3.04-13.78 8.43-19.55 11.97l-10.5 6.45-.27-17.05c-.23-14.03-.53-17.05-1.71-17.05-.79 0-14.22 7.65-29.85 17Zm144.18-10.1c-3.39 1.18-6.2 1.41-7.04.58-.28-.29-2.33-.7-4.55-.92-5.12-.51-7.42-1.89-13.14-7.93-6.34-6.67-10.08-13.3-10.1-17.88-.02-4.75 2.06-4.97 4.71-.5 2.74 4.62 11.81 14.3 15.58 16.63 3.12 1.93 9.46 4.28 14.94 5.53 3.69.84 3.48 3.14-.4 4.49Zm-129.08-40.37c-4.39 2.91-6.74 3.15-6.85.72-.33-7.65.42-16.55 1.73-20.6 1.45-4.46 1.71-4.72 3.19-3.24.88.88 1.84 3.97 2.13 6.85.51 5.08.62 5.24 3.53 5.11 1.65-.07 4.79-.49 6.98-.92l3.99-.79-1.59 2.42c-1.53 2.32-5.03 5.11-13.11 10.45ZM283 362.44c0 .97-.85 1.53-2.25 1.49-2.81-.08-6.75-1.93-6.75-3.17 0-.51-1.58-2.46-3.52-4.34-3.75-3.64-3.34-4.66.64-1.56 1.31 1.02 4.52 2.79 7.13 3.94 2.74 1.2 4.75 2.75 4.75 3.64ZM265.5 350c1 1.1 1.63 1.93 1.4 1.85-.22-.08-1.64-.34-3.15-.57-1.53-.23-2.75-1.05-2.75-1.85 0-2.06 2.39-1.76 4.5.57Z" />
  <path fill="#269EEB"
    d="M317.76 370.23c-.29.85-3.79 1.31-11.34 1.5-15.97.39-26.82-3.17-40.15-13.19-6.36-4.78-12.7-11.98-16.49-18.71-1.18-2.11-2.57-3.83-3.08-3.83-.52 0-3.53 1.58-6.7 3.5-3.17 1.92-6.15 3.52-6.63 3.53-.37.02-3.31 1.66-7.06 3.93 13.69-8.8 19.27-15.88 12.95-16.78-1.75-.25-16.72 6.57-25.98 11.64 3.51-2.07 8.69-5.13 13.87-8.19l14.64-8.63-.51-14.25-.52-14.25 3.37-7.23c1.85-3.97 3.82-7.23 4.37-7.24.63-.02 1.01 6.04 1.03 16.15.03 11.8.36 16.28 1.25 16.58.67.22 1.22 1.32 1.22 2.43 0 3.44 7.73 18.71 12.15 23.98 11.31 13.52 28.61 20.97 45.13 19.45 13.32-1.23 15.39-1.45 20.07-2.15 3.73-.56 4.65-.41 4.65.76 0 .8-.79 2.15-1.75 2.99-2.27 1.99-11.39 6.78-12.91 6.78-.64 0-1.36.55-1.58 1.23Zm-135.18-71.87c-6 3.65-11.64 6.64-12.54 6.64-1.46 0-1.64-3.42-1.81-34.5-.11-21.91.17-34.5.79-34.5.54 0 .98-.93.98-2.06 0-3.87 2.24-10.94 3.46-10.94 2.78 0 3.91 5.57 4.33 21.25.23 8.66.82 15.75 1.31 15.75.5 0 .9 5.62.9 12.5 0 13.82.39 14.5 5.99 10.51 4.87-3.47 30.79-16 37.26-18.01 3.58-1.12 6.59-1.56 7.1-1.05 1.27 1.27-.15 3.05-2.43 3.05-1.18 0-2.35 1-2.92 2.51-.53 1.38-3.1 3.8-5.73 5.39-2.62 1.59-5.78 3.81-7.01 4.95-1.24 1.13-5.96 4.27-10.5 6.96-4.54 2.7-13.17 7.89-19.18 11.55Zm128.48 43.63c-8.92 1.69-15.81.73-21.02-2.94-1.4-.98-3.53-2.09-4.74-2.47-3.69-1.14-11.76-10.89-14.11-17.05-4.05-10.57-2.6-24.63 2.83-27.54 2.6-1.39 3.42.68 4.84 12.27.58 4.76 1.94 10.39 3.03 12.52 2.35 4.61 9.04 10.87 13.69 12.82 4.37 1.82 16.44 1.77 23.42-.1 3.02-.81 6.31-1.48 7.31-1.49 1.74-.01 1.74.1 0 3.11-1 1.71-3.39 4.29-5.31 5.74-1.92 1.45-3.75 2.96-4.05 3.37-.31.41-2.95 1.2-5.89 1.76ZM144.25 346c-.97 0-1.25-5.32-1.25-23.5 0-13.12-.39-23.5-.89-23.5-.49 0-1.11-10.24-1.38-22.75-.58-27.61-2.46-36.42-6.2-29.08-1.48 2.88-1.82 8.8-2.57 44.33-.63 30.16-.93 49.26-.89 60.7-.1-11.67 0-31.63.27-64.45.36-43.59 1.08-84.13 1.6-90.09.92-10.43 2.36-14.76 4.27-12.85 1.59 1.59 3.75 19.37 3.77 30.94.01 6.82.41 11.25 1.02 11.25.66 0 1 20.5 1 59.5 0 47.06.26 59.5 1.25 59.5Zm60.58-.76c-.57-.44-.83-1.36-.83-2.8 0-1.34-.45-2.44-1-2.44-.58 0-1-3.18-1-7.55 0-6.95.22-7.75 2.75-10.1 1.51-1.4 4.61-3.65 6.89-4.98 2.47-1.45 4.31-3.35 4.58-4.72.41-2.15.2-2.24-3.64-1.65-2.25.35-5.03 1.24-6.2 1.97-1.16.74-2.91 1.04-3.88.67-1.46-.56-1.66-1.45-1.16-5.1.53-3.86.35-4.5-1.44-5.07-3.59-1.14-5.9 2.08-5.9 8.23 0 4.39-.46 5.85-2.45 7.85-1.35 1.35-3.2 2.45-4.1 2.45-.31 0-.74.1-1.24.27.45-.25.84-.47 1.16-.64 4.62-2.54 5.63-4.82 5.63-12.71 0-5.64.17-6.05 3.25-7.93 5.92-3.61 7.75-2.4 7.75 5.09 0 2.78.43 3.92 1.46 3.92.81 0 5.99-2.72 11.52-6.04.83-.5 1.61-.96 2.33-1.4 6.6-3.98 9.15-5.51 10.12-4.82.6.43.59 1.73.58 3.84-.01.37-.01.77-.01 1.19 0 4.04-.48 6.38-1.47 7.2-1.71 1.43-12.57 8.03-13.2 8.03-.23 0-2.88 1.57-5.88 3.49l-5.45 3.49v9.95c0 5.04.35 9.2.83 10.31Zm101.02-5.34c3.88-1.35 4.09-3.65.4-4.49-5.48-1.25-11.82-3.6-14.94-5.53-3.77-2.33-12.84-12.01-15.58-16.63-2.65-4.47-4.73-4.25-4.71.5.02 4.58 3.76 11.21 10.1 17.88 5.72 6.04 8.02 7.42 13.14 7.93 2.22.22 4.27.63 4.55.92.84.83 3.65.6 7.04-.58Zm-129.08-40.37c8.08-5.34 11.58-8.13 13.11-10.45l1.59-2.42-3.99.79c-2.19.43-5.33.85-6.98.92-2.91.13-3.02-.03-3.53-5.11-.29-2.88-1.25-5.97-2.13-6.85-1.48-1.48-1.74-1.22-3.19 3.24-1.31 4.05-2.06 12.95-1.73 20.6.11 2.43 2.46 2.19 6.85-.72ZM283 362.44c0-.89-2.01-2.44-4.75-3.64-2.61-1.15-5.82-2.92-7.13-3.94-3.98-3.1-4.39-2.08-.64 1.56 1.94 1.88 3.52 3.83 3.52 4.34 0 1.24 3.94 3.09 6.75 3.17 1.4.04 2.25-.52 2.25-1.49ZM265.5 350c-2.11-2.33-4.5-2.63-4.5-.57 0 .8 1.22 1.62 2.75 1.85 1.51.23 2.93.49 3.15.57.23.08-.4-.75-1.4-1.85Zm-84.28-24.88c-2.02 1.27-4.99 3.04-7.72 4.6-3.85 2.19-11.72 6.75-17.5 10.13a213.67 213.67 0 0 1-5.34 3.04c4.4-2.47 11.8-6.79 24.34-14.15 2.02-1.19 4.21-2.46 6.22-3.62Zm37.88 26.28c-5.04 3.12-11.31 6.97-15.6 9.58l-2.7 1.64 3.2-1.97c4.3-2.63 10.27-6.29 15.1-9.25Zm-87.78 11.5c.16 2.7.41 3.93.74 4.08-.03.01-.06.02-.08.02-.29 0-.51-1.13-.66-4.1Z" />
  <path fill="#41CAEA"
    d="M180 250c0 24.53.15 32.41.88 34.41-.78-1.41-.88-5.03-.88-11.91s-.4-12.5-.9-12.5c-.49 0-1.08-7.09-1.31-15.75-.42-15.68-1.55-21.25-4.33-21.25-1.22 0-3.46 7.07-3.46 10.94 0 1.13-.44 2.06-.98 2.06-.42 0-.69 5.92-.78 16.7v-2.19c-.05-29.96.3-54.72.77-55.02.48-.29 7.76 3.45 16.18 8.32 43.45 25.12 68.29 40 69.2 41.44.8 1.27.07 2.63-3.47 6.43-2.47 2.65-5.47 6.42-6.67 8.39-2.08 3.39-16.45 12.64-35.47 22.81-2.04 1.09-5.31 2.95-8.52 4.83.54-.32 1.04-.62 1.5-.9 4.54-2.69 9.26-5.83 10.5-6.96 1.23-1.14 4.39-3.36 7.01-4.95 2.63-1.59 5.2-4.01 5.73-5.39.57-1.51 1.74-2.51 2.92-2.51 2.28 0 3.7-1.78 2.43-3.05-.51-.51-3.52-.07-7.1 1.05-4.85 1.51-20.64 8.93-30.29 14.01 5.37-3.15 13.79-8.07 22.26-13 12.5-7.28 23.26-13.88 23.92-14.67.93-1.13.88-1.74-.23-2.81-1.28-1.24-17.64-11.03-28.91-17.31-2.48-1.38-7.75-4.46-11.73-6.86-3.98-2.4-7.49-4.36-7.81-4.36-.31 0-2.22-1.12-4.25-2.5-2.02-1.38-4.24-2.5-4.94-2.5-1 0-1.27 7.4-1.27 35Zm-35.75 96c-.99 0-1.25-12.44-1.25-59.5 0-39-.34-59.5-1-59.5-.61 0-1.01-4.43-1.02-11.25-.02-11.57-2.18-29.35-3.77-30.94-1.91-1.91-3.35 2.42-4.27 12.85-.52 5.96-1.24 46.5-1.6 90.09-.19 23.17-.3 39.93-.31 51.89-.06-17.33.02-44.6.23-86.39.3-62.56.87-114.54 1.25-115.5.39-.96 1.07-1.75 1.52-1.75.44 0 5.38 2.7 10.97 6 5.59 3.3 10.35 6 10.58 6 .23 0 5.55 3.38 11.82 7.5 6.28 4.12 11.8 7.5 12.27 7.5.48 0 3.04 1.8 5.71 4 3.04 2.51 5.86 4 7.57 4 3.77 0 5.94 2.77 7.58 9.65 1.63 6.84 1.91 17.96.47 18.85-1.41.87-6.98-2.62-7.12-4.47-.07-.84-.02-4.12.09-7.29.2-5.23-.06-6.02-2.74-8.53-1.63-1.52-5.83-4.2-9.35-5.97-3.51-1.77-9.53-5.01-13.38-7.2-10.89-6.22-18.5-10.12-18.5-9.5 0 .32-1-.13-2.22-.98-.22-.16-.44-.32-.64-.47-.73-.54-1.33-.99-1.83-.89-2.32.45-2.32 12.8-2.31 82.82V250c0 76.33.26 96 1.25 96Zm110.62-20.7c-1.7-3.64-2.87-6.77-2.87-8.11 0-1.11-.55-2.21-1.22-2.43-.89-.3-1.22-4.78-1.25-16.58-.02-10.11-.4-16.17-1.03-16.15-.55.01-2.52 3.27-4.37 7.24l-3.37 7.23.52 14.25.36 10.05-.02-.17c-2.71-19.58-1.36-32.25 4.81-45.29 6.17-13.05 20.65-26.27 28.82-26.32 3.07-.02 3.75.34 3.75 1.95 0 1.18-1.19 2.6-2.94 3.5-5.02 2.59-16.71 15.95-17.5 20-.12.57-.99 2.83-1.95 5.03-3.76 8.6-5.02 15.75-4.9 27.68.11 10.37.19 11.67 3.16 18.12Zm62.89 44.93c.22-.68.94-1.23 1.58-1.23 1.52 0 10.64-4.79 12.91-6.78.96-.84 1.75-2.19 1.75-2.99 0-1.17-.92-1.32-4.65-.76-4.68.7-6.75.92-20.07 2.15-1.17.11-2.34.17-3.52.19 9.91-.28 20.38-3.57 28.16-9.15 2.8-2.02 5.48-3.66 5.96-3.66 1.05 0 11.02-11.28 13.69-15.5 3.87-6.1 6.93-7.05 7.94-2.47.72 3.29-2.32 10.29-7.37 16.95-1.45 1.92-3.09 4.36-3.64 5.43-1.91 3.71-14.89 12.58-23 15.72-5.21 2.02-7.96 2.78-13.38 3.18 2.31-.25 3.48-.61 3.64-1.08Zm-6.7-28.24c2.94-.56 5.58-1.35 5.89-1.76.3-.41 2.13-1.92 4.05-3.37 1.92-1.45 4.31-4.03 5.31-5.74 1.74-3.01 1.74-3.12 0-3.11-1 .01-4.29.68-7.31 1.49-3.4.91-8 1.39-12.34 1.43 3.4-.29 6.78-1.13 9.46-2.49C325.27 323.8 332 315 332 307.67c0-.88.84-2.05 1.86-2.6 5.73-3.06 7.32 7.78 2.5 17.1-1.52 2.93-2.68 5.64-2.58 6.01.28 1.08-8.89 8.83-12.81 10.83-1.94 1-6.19 2.3-9.44 2.9l-1.02.18c.18-.03.37-.07.55-.1Zm-31.39-32.78c-.33-1.63-.61-3.34-.81-4.95-1.42-11.59-2.24-13.66-4.84-12.27-5.15 2.75-6.72 15.53-3.43 25.85-.03-.09-.07-.18-.1-.28-2.38-6.53-2.68-8.56-2.25-15.3.62-9.61 3.03-15.29 9.15-21.59 3.68-3.79 5.24-4.73 7.38-4.48 3.59.41 4.35 4.99 1.37 8.16-1.11 1.18-2.02 2.38-2.03 2.65 0 .27-1.01 2.75-2.25 5.5-2.07 4.61-2.81 11.15-2.19 16.71Zm29.01-7.5c-1.14 1.85-4.49 2.11-6.73.54-2.02-1.42-2.15-2.16-1.76-10.41.58-12.12 3.95-15.54 7.34-7.43 1.41 3.38 2.22 15.57 1.15 17.3ZM232 199.03c0 1.6-1.4 1.12-5.55-1.9-2.17-1.58-4.96-3.19-6.2-3.57-2.67-.82-3-2.56-.49-2.56 2.12 0 12.24 6.64 12.24 8.03Zm70.92 172.72c-5.77.09-8.55-.22-12.58-1.35 3.92.86 8.05 1.29 12.58 1.35Zm-31.86-23.66a55.09 55.09 0 0 1-6.91-6.92c-1.12-1.33-2.45-3.3-3.81-5.56 3.09 4.83 6.67 8.99 10.72 12.48Zm14.24-11.51c-2.59-.81-6.32-4.57-9.53-9.18 3.25 4.43 7.24 8.47 9.53 9.18ZM181.44 285c.57 0 2.23-.69 4.11-1.68-2.01 1.41-3.29 2.12-4.11 1.68Zm1.14 13.36c2.58-1.57 5.64-3.42 8.66-5.24-3.91 2.37-8.5 5.16-11.66 7.07-3.92 2.39-7.82 4.38-9.22 4.75 1.52-.44 6.72-3.23 12.22-6.58Zm94.34 67.07c-3.39-1.72-6.57-3.82-10.65-6.89 3.69 2.77 7.18 5.05 10.65 6.89Zm23.12-22.79c-3.89-.39-7.14-1.58-10-3.59 2.82 1.99 6.13 3.18 10 3.59Zm-58.25-17.65v.01l-14.64 8.63c-5.18 3.06-10.36 6.12-13.87 8.19 3.55-2.1 8.8-5.2 14.06-8.3Zm-72.4-20.42c.18.32.39.42.63.43H170c-.23 0-.43-.1-.61-.43Zm-37.33 62.41c-.03.01-.06.02-.08.02.02 0 .05-.01.08-.02Z" />
  <path fill="#5FEEEB"
    d="M349.13 354.2c.64-.67 1.11-1.28 1.37-1.79.55-1.07 2.19-3.51 3.64-5.43 5.05-6.66 8.09-13.66 7.37-16.95-1.01-4.58-4.07-3.63-7.94 2.47-2.67 4.22-12.64 15.5-13.69 15.5-.33 0-1.69.77-3.42 1.9 13.75-10.62 22.54-27.69 22.54-45.72 0-32.04-25.81-56.86-57.05-54.88-20 1.27-35.45 11.66-45.24 30.4-.6 1.15-1.14 2.34-1.62 3.58.45-1.24.96-2.49 1.52-3.78.96-2.2 1.83-4.46 1.95-5.03.79-4.05 12.48-17.41 17.5-20 1.75-.9 2.94-2.32 2.94-3.5 0-1.61-.68-1.97-3.75-1.95-7.25.05-19.48 10.47-26.45 21.94 7.12-13.03 17.84-22.67 32.2-28.95 3.02-1.32 5.91-2.75 6.41-3.17.85-.71-3.03-4.73-4.65-4.81-.4-.02-5.8-3.01-12-6.64-6.19-3.64-14.41-8.43-18.26-10.65-3.85-2.23-8.68-5.1-10.73-6.39-2.05-1.29-3.92-2.35-4.16-2.35-.81 0-21.11-12.23-22.86-13.77-1.29-1.13-1.75-3.07-1.75-7.36 0-5.81 0-5.82 2.53-4.86 2.33.89 8.23 4.24 29.97 17.02 9.55 5.61 20.71 12.15 37.09 21.74 6.65 3.89 12.95 7.22 14 7.4 1.74.3 1.94-.44 2.2-8.55l.03-.74c.14-4.37.22-6.6-.72-8.26-1.04-1.84-3.32-2.97-8.1-5.49-2.48-1.31-5.17-2.92-6-3.6-.83-.67-4.2-2.71-7.5-4.53-3.3-1.81-12.3-6.99-20-11.49C219.53 163.9 207.24 157 205.69 157c-1.51 0-1.69 1.65-1.69 15.85 0 8.72-.29 18.67-.65 22.1l-.65 6.24-3.05-.61c-1.68-.34-4.09-1.58-5.35-2.77-1.98-1.86-2.3-3.15-2.3-9.24v-7.08l-23.39-13.75c-11.04-6.48-20.72-11.95-23.63-13.38.1-.09.21-.14.33-.16.5-.1 1.1.35 1.83.89.2.15.42.31.64.47 1.22.85 2.22 1.3 2.22.98 0-.62 7.61 3.28 18.5 9.5 3.85 2.19 9.87 5.43 13.38 7.2 3.52 1.77 7.72 4.45 9.35 5.97 2.68 2.51 2.94 3.3 2.74 8.53-.11 3.17-.16 6.45-.09 7.29.14 1.85 5.71 5.34 7.12 4.47 1.44-.89 1.16-12.01-.47-18.85-1.64-6.88-3.81-9.65-7.58-9.65-1.71 0-4.53-1.49-7.57-4-2.67-2.2-5.23-4-5.71-4-.47 0-5.99-3.38-12.27-7.5-6.27-4.12-11.59-7.5-11.82-7.5-.23 0-4.99-2.7-10.58-6s-10.53-6-10.97-6c-.45 0-1.13.79-1.52 1.75-.38.96-.95 52.94-1.25 115.5-.1 19.34-.17 35.57-.21 49.14-.03-14.54-.05-31.88-.05-52.37V133.05l2.71 1.03c1.49.57 5.2 2.54 8.25 4.38 4.79 2.89 24.46 14.31 43.22 25.09 3.12 1.79 5.93 3 6.25 2.69.31-.32.57-7.02.57-14.91 0-12.57.2-14.33 1.63-14.33 1.98 0 10.16 4.11 20.87 10.49 4.4 2.62 9.46 5.61 11.25 6.64 1.79 1.03 4.94 2.85 7 4.04 2.06 1.19 5.32 3.01 7.25 4.05 1.93 1.03 5.98 3.36 9 5.18 3.02 1.81 10.44 6.13 16.49 9.59 6.04 3.46 16.48 9.58 23.19 13.6 6.72 4.02 13.96 8.2 16.08 9.29 6.28 3.2 6.36 3.46 6.56 20.7l.03 2.9c.08 8.41.11 11.65 1.75 13.26 1.21 1.18 3.28 1.47 6.9 2.28 14.22 3.18 28.49 12.53 37.18 24.39 8.13 11.08 12.43 22.91 13.49 37.13 1.48 19.85-7.05 39.8-21.54 53.66Zm-15.35-25.95c.01-.02 0-.05 0-.07-.1-.37 1.06-3.08 2.58-6.01 4.82-9.32 3.23-20.16-2.5-17.1-1.02.55-1.86 1.72-1.86 2.6 0 6.79-5.78 14.85-13.91 19.68 1.62-1.01 3.19-2.24 4.75-3.71 5.58-5.26 7.48-10.05 7.57-19.14.09-8.88-1.14-12.17-7.05-18.75-5.31-5.93-4.31-11.75 2.02-11.75 2.26 0 4.03 1.13 7.34 4.68 5.09 5.47 6.64 8.48 8.87 17.28 2.97 11.72.19 23.08-7.81 32.29Zm-24.53-27.06c-.18.16-.35.3-.53.44 1-2.02.2-13.89-1.19-17.22-3.39-8.11-6.76-4.69-7.34 7.43-.23 4.9-.28 7.15.14 8.47-.8-1.84-.8-5.73-.73-18.24.1-15.93.32-18.33 1.91-20.08 2.29-2.54 4.95-2.53 7.49.01 1.85 1.85 2 3.33 2 19.85 0 15.75-.2 18.02-1.75 19.34Zm-22.64-15.31c-2.7 3.03-4.45 5.67-5.54 8.65.24-.71.5-1.39.79-2.03 1.24-2.75 2.25-5.23 2.25-5.5.01-.27.92-1.47 2.03-2.65 2.98-3.17 2.22-7.75-1.37-8.16-2.14-.25-3.7.69-7.38 4.48-2.97 3.05-5.06 5.96-6.51 9.25 5.06-12.43 13.76-19.29 18.47-14.09 2.54 2.81 2.03 4.68-2.74 10.05ZM232 199.03c0-1.39-10.12-8.03-12.24-8.03-2.51 0-2.18 1.74.49 2.56 1.24.38 4.03 1.99 6.2 3.57 4.15 3.02 5.55 3.5 5.55 1.9ZM143 250v-12.98c-.01-40.24-.01-61.43.43-72.26-.3 13.45-.43 40.35-.43 85.24Zm173.25 109.44c-3.47.8-7.01 1.27-10.49 1.37-2.2.03-4.4-.08-6.6-.35 5.29.38 11.76 0 17.09-1.02Zm10.25 9.12c-1.93.73-3.6 1.28-5.33 1.69 1.92-.48 3.85-1.16 6.33-2.12 5.49-2.12 13.19-6.87 18.2-10.86-5.69 4.77-12.16 8.64-19.2 11.29Zm-58.42-62.7c-.21-4.44.35-8.88 1.73-13.05-.85 2.75-1.34 5.82-1.57 9.45a76.75 76.75 0 0 0-.16 3.6Zm-26.57-15.76c-1.69 8.65-1.59 18.23.11 30.53-1.75-12.65-1.9-21.91-.11-30.53Zm38.16 19.11c-.34-3.07-.27-6.45.21-9.63-.23 1.76-.32 3.7-.32 5.92 0 1.53.07 2.95.23 4.27-.04-.18-.08-.37-.12-.56Zm-7.14 13.17c.89 1.62 2.01 3.35 3.24 5.02.56.8 1.13 1.58 1.71 2.32a38.117 38.117 0 0 1-4.95-7.34Zm19.47 5.18c2.08 1.38 4.11 2.28 6.41 2.8-1.13-.2-2.09-.45-2.83-.76-1.11-.46-2.33-1.17-3.58-2.04Zm-22.4-12.53c.26.77.55 1.61.89 2.53.03.1.07.19.1.28.17.52.35 1.03.54 1.53-.6-1.42-1.11-2.87-1.53-4.34Zm-16.87-23.08c-.75 4.37-1.08 9.37-1.02 15.23-.06-6.03.23-10.84 1.02-15.23Zm52.78 11.33c-.89.14-1.75-.02-2.62-.5.84.37 1.76.53 2.62.5Zm6.02 38.63c1.99-.37 4.34-1 6.32-1.66-1.91.7-3.96 1.22-6.32 1.66ZM296 371.53c-1.93-.2-3.64-.56-5.66-1.13 2.02.56 3.73.92 5.66 1.13Z" />
  <path fill="#A9EBF0"
    d="M204 172.85c0-14.2.18-15.85 1.69-15.85-1.54 0-1.69 2.1-1.69 23 0 18.87-.25 23-1.38 23-.76 0-1.94-.68-2.62-1.5-.44-.53-1.02-.99-1.53-1.26.41.15.81.27 1.18.34l3.05.61.65-6.24c.36-3.43.65-13.38.65-22.1Zm-3.13 124.9c2.62-2.91 3.13-2.06 3.13 5.25 0 5.48.32 7 1.46 7-1.03 0-1.46-1.14-1.46-3.92 0-6.52-1.39-8.28-5.66-6.25 1.06-.73 2.02-1.51 2.53-2.08Zm-8.71-156.88c.14-3.57.35-5.87.59-5.87.41.01 2.32.98 4.25 2.16 1.59.98 6.34 3.81 11.36 6.77-7.62-4.31-13.15-6.93-14.73-6.93-.86 0-1.27.64-1.47 3.87Zm5.76 59.16a.97.97 0 0 0-.23-.03c-.58 0-2.1-.98-3.38-2.17.87.81 2.27 1.64 3.61 2.2Zm-5.92-48.7c0 7.89-.26 14.59-.57 14.91.31-.32.57-7.47.57-15.91v-1.35 2.35Zm27.97-.59c3.74 2.18 6.76 3.94 9.26 5.39-1.3-.74-2.57-1.48-3.48-2-1.06-.61-3.25-1.9-5.78-3.39Zm-25.79 151.73c-1.09 1.12-1.18 2.5-1.18 6.42 0-4.02.08-5.39 1.18-6.42Zm37.6-144.86c1.84 1.06 3.35 1.91 4.66 2.65-1.32-.74-2.66-1.49-3.69-2.09-.3-.18-.63-.36-.97-.56ZM193 308.89v.03c0 4.35-.31 7-1.36 8.92 1.05-1.93 1.36-4.58 1.36-8.95Zm-.35-113.35c-.53-1.35-.65-3.28-.65-6.97 0 3.69.12 5.62.65 6.97Z" />
</svg>
